<?xml version="1.0" standalone="no"?>
<!DOCTYPE svg PUBLIC "-//W3C//DTD SVG 20010904//EN"
 "http://www.w3.org/TR/2001/REC-SVG-20010904/DTD/svg10.dtd">
<svg version="1.0" xmlns="http://www.w3.org/2000/svg"
 width="75.000000pt" height="50.000000pt" viewBox="0 0 75.000000 50.000000"
 preserveAspectRatio="xMidYMid meet">
<metadata>
Created by potrace 1.16, written by Peter Selinger 2001-2019
</metadata>
<g transform="translate(0.000000,50.000000) scale(0.100000,-0.100000)"
fill="#000000" stroke="none">
<path d="M300 448 c-100 -54 -139 -193 -85 -303 16 -35 40 -65 63 -80 52 -35
68 -33 75 12 5 29 2 42 -20 67 -25 30 -26 33 -20 144 3 63 8 116 11 119 15 16
26 -17 28 -85 l2 -77 5 79 c4 50 11 81 19 84 9 3 12 -15 12 -67 0 -42 5 -73
11 -77 9 -5 10 9 5 53 -7 65 -1 93 20 93 11 0 14 -18 14 -77 0 -43 3 -94 6
-114 6 -32 1 -41 -40 -88 -47 -52 -62 -101 -31 -101 10 0 15 12 17 38 1 36 1
36 5 5 3 -23 10 -33 21 -33 34 0 90 49 116 102 90 181 -72 392 -234 306z"/>
<path d="M328 331 c-14 -114 -11 -146 18 -181 l27 -31 28 27 c29 28 29 29 27
138 -2 106 -2 108 -7 36 -5 -57 -10 -75 -21 -75 -11 0 -16 18 -21 75 l-5 75
-2 -77 c-2 -61 -5 -78 -17 -78 -11 0 -15 18 -17 78 l-3 77 -7 -64z"/>
</g>
</svg>
